<?xml version="1.0" standalone="no"?>
<!DOCTYPE svg PUBLIC "-//W3C//DTD SVG 20010904//EN"
 "http://www.w3.org/TR/2001/REC-SVG-20010904/DTD/svg10.dtd">
<svg version="1.0" xmlns="http://www.w3.org/2000/svg"
 width="300.000000pt" height="300.000000pt" viewBox="0 0 300.000000 300.000000"
 preserveAspectRatio="xMidYMid meet">
<metadata>
Created by potrace 1.11, written by Peter Selinger 2001-2013
</metadata>
<g transform="translate(0.000000,300.000000) scale(0.100000,-0.100000)"
fill="#000000" stroke="none">
<path d="M1349 2996 c-2 -2 -29 -7 -59 -10 -166 -20 -368 -90 -548 -191 -210
-117 -441 -357 -562 -582 -76 -141 -148 -359 -168 -505 -8 -65 -8 -358 0 -413
35 -220 99 -397 210 -578 185 -301 473 -530 807 -641 310 -103 677 -98 982 13
497 182 866 618 965 1141 12 65 18 145 19 255 0 181 -3 213 -39 381 -2 11 -18
62 -35 113 -175 521 -623 904 -1171 1001 -59 11 -393 24 -401 16z"/>
</g>
</svg>
